<?xml version="1.0" encoding="UTF-8"?>
<!-- Generated by Pixelmator Pro 3.2.3 -->
<svg width="1413" height="551" viewBox="0 0 1413 551" xmlns="http://www.w3.org/2000/svg" xmlns:xlink="http://www.w3.org/1999/xlink">
    <g id="Group">
        <g id="Group-copy-2">
            <path id="Ellipse" fill="#fbc63d" fill-rule="evenodd" stroke="none" d="M 30.318359 415.875 C 23.585855 390.187531 20 363.226807 20 335.427734 C 20 160.669769 161.669785 19 336.427734 19 C 511.185699 19 652.855469 160.669769 652.855469 335.427734 C 652.855469 363.014801 649.322937 389.776276 642.689453 415.287109 C 613.68634 398.640869 465.621613 322.905457 334.525391 323.378906 C 191.665787 316.333832 55.05431 399.888794 30.318359 415.875 Z"/>
            <path id="Ellipse-copy-5" fill="#fbd573" fill-rule="evenodd" stroke="none" d="M 30.054688 414.861328 C 23.492521 389.478699 20 362.861145 20 335.427734 C 20 160.669769 161.669785 19 336.427734 19 C 511.185699 19 652.855469 160.669769 652.855469 335.427734 C 652.855469 362.679504 649.409912 389.126648 642.931641 414.357422 C 632.043518 377.112213 552.041138 153.105743 337.042969 148.029297 C 122.764793 150.707397 41.520882 378.934875 30.054688 414.861328 Z"/>
            <path id="Ellipse-copy-6" fill="#fbe7a6" fill-rule="evenodd" stroke="none" d="M 30.292969 415.773438 C 23.577579 390.116394 20 363.190247 20 335.427734 C 20 160.669769 161.669785 19 336.427734 19 C 511.185699 19 652.855469 160.669769 652.855469 335.427734 C 652.855469 362.904816 649.351929 389.563354 642.769531 414.982422 C 638.996399 380.22287 592.319275 86.607391 339.5 82.900391 C 81.228981 86.955292 35.094997 378.869934 30.292969 415.773438 Z"/>
        </g>
        <g id="Group-copy-5">
            <g id="g1">
                <path id="CHI" fill="#c53e32" fill-rule="evenodd" stroke="none" d="M 1069.682617 310.236267 L 1069.682617 130.499237 L 1093.467773 130.499237 L 1093.467773 310.236267 Z M 885.041504 310.236267 L 885.041504 130.499237 L 908.82666 130.499237 L 908.82666 204.306671 L 1002.250671 204.306671 L 1002.250671 130.499237 L 1026.035889 130.499237 L 1026.035889 310.236267 L 1002.250671 310.236267 L 1002.250671 225.517151 L 908.82666 225.517151 L 908.82666 310.236267 Z M 831.218445 247.217987 L 855.003662 253.225555 C 850.017761 272.760468 841.047302 287.656708 828.092041 297.914612 C 815.136963 308.172485 799.30072 313.301331 780.583191 313.301331 C 761.21167 313.301331 745.457336 309.357605 733.319458 301.470093 C 721.181641 293.582581 711.945496 282.160126 705.611084 267.202393 C 699.276489 252.244659 696.109253 236.183746 696.109253 219.019135 C 696.109253 200.301514 699.68512 183.975006 706.837036 170.038971 C 713.989014 156.102936 724.164917 145.51825 737.365417 138.284607 C 750.565735 131.050964 765.094116 127.434174 780.95105 127.434174 C 798.932922 127.434174 814.053955 132.011292 826.314331 141.165741 C 838.574707 150.320221 847.116028 163.193451 851.938599 179.78595 L 828.52124 185.30307 C 824.352722 172.225281 818.304321 162.703156 810.375793 156.736481 C 802.447388 150.769714 792.475769 147.786407 780.46051 147.786407 C 766.647095 147.786407 755.102051 151.096649 745.825012 157.717285 C 736.547913 164.337921 730.029541 173.226563 726.269653 184.383545 C 722.509949 195.540558 720.629944 207.0448 720.629944 218.896515 C 720.629944 234.181152 722.857178 247.524445 727.31189 258.926605 C 731.766479 270.328796 738.693604 278.849731 748.093201 284.489471 C 757.492859 290.129303 767.668762 292.949127 778.62146 292.949127 C 791.944458 292.949127 803.223999 289.107635 812.460144 281.424408 C 821.696289 273.741211 827.949097 262.339142 831.218445 247.217987 Z"/>
                <path id="23" fill="#fbc63d" fill-rule="evenodd" stroke="none" d="M 1266.584229 262.543518 L 1299.932373 258.49765 C 1300.994995 266.998169 1303.855591 273.496094 1308.514648 277.991547 C 1313.173706 282.487061 1318.813232 284.734741 1325.43396 284.734741 C 1332.544922 284.734741 1338.532104 282.037476 1343.395264 276.642914 C 1348.258667 271.248352 1350.690186 263.973969 1350.690186 254.819519 C 1350.690186 246.155487 1348.360718 239.289734 1343.701904 234.222107 C 1339.042847 229.15448 1333.362305 226.620728 1326.659912 226.620728 C 1322.246216 226.620728 1316.974365 227.478912 1310.844116 229.195435 L 1314.644775 201.119202 C 1323.962646 201.36438 1331.07373 199.341492 1335.977783 195.050354 C 1340.881958 190.759216 1343.334106 185.058197 1343.334106 177.947174 C 1343.334106 171.898651 1341.535767 167.076355 1337.939453 163.47998 C 1334.343018 159.883575 1329.561646 158.085388 1323.594849 158.085388 C 1317.709839 158.085388 1312.683105 160.128784 1308.514648 164.215607 C 1304.346191 168.302338 1301.812378 174.269043 1300.91333 182.115692 L 1269.158936 176.7211 C 1271.365845 165.85022 1274.696533 157.165863 1279.151123 150.667847 C 1283.605835 144.16983 1289.817505 139.061462 1297.786865 135.342468 C 1305.756104 131.623444 1314.685547 129.763977 1324.575806 129.763977 C 1341.494995 129.763977 1355.062988 135.158478 1365.280029 145.947632 C 1373.698853 154.775146 1377.908203 164.746765 1377.908203 175.862915 C 1377.908203 191.637939 1369.285156 204.225128 1352.03894 213.624786 C 1362.337646 215.831665 1370.572388 220.776581 1376.743408 228.459808 C 1382.914551 236.142944 1386 245.419861 1386 256.290771 C 1386 272.065796 1380.237671 285.511169 1368.712891 296.627319 C 1357.18811 307.743408 1342.84375 313.301331 1325.679199 313.301331 C 1309.413696 313.301331 1295.927368 308.62207 1285.219971 299.263306 C 1274.512573 289.904449 1268.300781 277.664673 1266.584229 262.543518 Z M 1244.515747 278.236786 L 1244.515747 310.236267 L 1123.751221 310.236267 C 1125.05896 298.139313 1128.982422 286.676025 1135.521118 275.846008 C 1142.060059 265.015991 1154.974121 250.651093 1174.263916 232.750854 C 1189.793701 218.283569 1199.315918 208.475464 1202.830566 203.32608 C 1207.571167 196.214996 1209.941528 189.185822 1209.941528 182.238312 C 1209.941528 174.555115 1207.877563 168.64975 1203.750122 164.522064 C 1199.622314 160.39444 1193.921387 158.330566 1186.646851 158.330566 C 1179.454102 158.330566 1173.732666 160.496582 1169.482422 164.828583 C 1165.232056 169.160614 1162.780029 176.353302 1162.126099 186.406799 L 1127.797241 182.973846 C 1129.840576 164.011139 1136.256714 150.402252 1147.045898 142.146942 C 1157.835083 133.891602 1171.321289 129.763977 1187.505127 129.763977 C 1205.241699 129.763977 1219.17749 134.545471 1229.312866 144.108551 C 1239.44812 153.671722 1244.515747 165.564148 1244.515747 179.786163 C 1244.515747 187.878052 1243.064819 195.581604 1240.16333 202.896912 C 1237.261597 210.212311 1232.664063 217.874969 1226.370239 225.885101 C 1222.201782 231.197937 1214.682129 238.840179 1203.811279 248.811951 C 1192.94043 258.783722 1186.054199 265.404266 1183.15271 268.673737 C 1180.250977 271.943176 1177.901123 275.130798 1176.103027 278.236786 Z"/>
            </g>
            <path id="GlobalPlaza" fill="#fbc63d" fill-rule="evenodd" stroke="none" d="M 1017.603455 433.120789 L 1017.603455 353.7388 L 1027.35022 353.7388 L 1027.35022 433.120789 Z M 990.342773 426.027313 C 986.73291 429.095764 983.258362 431.261688 979.919189 432.525146 C 976.579956 433.788605 972.997192 434.420349 969.170715 434.420349 C 962.853271 434.420349 957.997986 432.877136 954.604614 429.790619 C 951.211304 426.704132 949.514771 422.760345 949.514771 417.959167 C 949.514771 415.143402 950.155457 412.571381 951.436951 410.24295 C 952.718445 407.914551 954.397156 406.046448 956.472778 404.63855 C 958.548523 403.230713 960.885925 402.165771 963.485046 401.443817 C 965.398254 400.938416 968.286133 400.45108 972.148804 399.981781 C 980.018494 399.043213 985.812317 397.924164 989.530518 396.624573 C 989.56665 395.28891 989.584656 394.440582 989.584656 394.07959 C 989.584656 390.108643 988.664246 387.311005 986.823059 385.686523 C 984.332214 383.484497 980.632202 382.383484 975.722656 382.383484 C 971.138062 382.383484 967.753784 383.186707 965.569702 384.793091 C 963.385742 386.399506 961.770325 389.24231 960.72345 393.321503 L 951.193298 392.021912 C 952.059753 387.942719 953.485535 384.648712 955.471008 382.139801 C 957.456482 379.63092 960.326416 377.699646 964.08075 376.345886 C 967.835083 374.992188 972.184937 374.315308 977.130493 374.315308 C 982.039978 374.315308 986.028931 374.892883 989.09729 376.048096 C 992.165833 377.203247 994.422058 378.656219 995.866028 380.407043 C 997.309937 382.157867 998.320679 384.368896 998.898193 387.040253 C 999.223145 388.700806 999.385559 391.697021 999.385559 396.028931 L 999.385559 409.024597 C 999.385559 418.085541 999.593201 423.816223 1000.00824 426.216797 C 1000.423462 428.617432 1001.244751 430.918732 1002.472107 433.120789 L 992.292114 433.120789 C 991.281372 431.099243 990.631531 428.734772 990.342773 426.027313 Z M 989.530518 404.259521 C 985.992798 405.703522 980.68634 406.930847 973.610901 407.94165 C 969.60376 408.519226 966.77002 409.169006 965.109497 409.890991 C 963.448914 410.612976 962.167419 411.668884 961.264954 413.058716 C 960.362427 414.448486 959.911194 415.99173 959.911194 417.688416 C 959.911194 420.287537 960.894897 422.453491 962.862366 424.186279 C 964.829712 425.919006 967.708618 426.78537 971.499084 426.78537 C 975.253296 426.78537 978.59259 425.964111 981.516479 424.321594 C 984.440552 422.679077 986.58844 420.431946 987.960266 417.580078 C 989.007141 415.378052 989.530518 412.12915 989.530518 407.833344 Z M 896.804199 433.120789 L 887.761414 433.120789 L 887.761414 353.7388 L 897.508118 353.7388 L 897.508118 382.058563 C 901.623413 376.896393 906.875854 374.315308 913.26532 374.315308 C 916.80304 374.315308 920.151306 375.028259 923.309998 376.454163 C 926.468689 377.880127 929.06781 379.883606 931.107422 382.464722 C 933.147034 385.045776 934.744324 388.159332 935.899475 391.805328 C 937.054688 395.451355 937.632385 399.350037 937.632385 403.501434 C 937.632385 413.356567 935.195679 420.973389 930.322327 426.352173 C 925.448792 431.730988 919.60083 434.420349 912.778137 434.420349 C 905.991394 434.420349 900.666809 431.586609 896.804199 425.919006 Z M 896.695862 403.934662 C 896.695862 410.82962 897.63446 415.811218 899.511597 418.879669 C 902.580139 423.897461 906.731384 426.406342 911.96582 426.406342 C 916.225525 426.406342 919.907593 424.556274 923.012207 420.85611 C 926.11676 417.155914 927.669006 411.641846 927.669006 404.31369 C 927.669006 396.805054 926.179871 391.263885 923.20166 387.690033 C 920.22345 384.116211 916.62262 382.329346 912.399048 382.329346 C 908.139343 382.329346 904.457275 384.179382 901.352661 387.879578 C 898.248108 391.579773 896.695862 396.931396 896.695862 403.934662 Z M 819.185303 404.367859 C 819.185303 393.718536 822.145386 385.830933 828.065674 380.704834 C 833.011353 376.445129 839.039734 374.315308 846.151367 374.315308 C 854.057129 374.315308 860.518738 376.905396 865.53656 382.085632 C 870.554382 387.2659 873.063232 394.422485 873.063232 403.555603 C 873.063232 410.955963 871.953186 416.776886 869.733154 421.018555 C 867.513062 425.260223 864.282227 428.55423 860.040527 430.900696 C 855.798828 433.247131 851.169189 434.420349 846.151367 434.420349 C 838.101196 434.420349 831.59436 431.839294 826.630676 426.677094 C 821.667175 421.514893 819.185303 414.078552 819.185303 404.367859 Z M 829.20282 404.367859 C 829.20282 411.732086 830.809265 417.246185 834.022095 420.910248 C 837.234863 424.574341 841.278015 426.406342 846.151367 426.406342 C 850.98877 426.406342 855.013672 424.565308 858.226501 420.883179 C 861.439331 417.20105 863.045715 411.587677 863.045715 404.042908 C 863.045715 396.931396 861.430298 391.54364 858.199524 387.879578 C 854.968567 384.215515 850.952576 382.383484 846.151367 382.383484 C 841.278015 382.383484 837.234863 384.206482 834.022095 387.852478 C 830.809265 391.498535 829.20282 397.003601 829.20282 404.367859 Z M 794.632141 433.120789 L 794.632141 353.7388 L 804.378906 353.7388 L 804.378906 433.120789 Z M 743.654419 401.985291 L 743.654419 392.671722 L 777.280701 392.617554 L 777.280701 422.074463 C 772.11853 426.189758 766.793945 429.285248 761.306885 431.360962 C 755.819824 433.436646 750.188354 434.474487 744.412537 434.474487 C 736.615112 434.474487 729.53064 432.804932 723.15918 429.465759 C 716.787659 426.126556 711.977417 421.29834 708.728455 414.980988 C 705.479675 408.663574 703.855103 401.606262 703.855103 393.808838 C 703.855103 386.083588 705.47052 378.872864 708.701477 372.176453 C 711.932312 365.480042 716.580078 360.507446 722.644775 357.258484 C 728.709351 354.009583 735.694519 352.385132 743.600281 352.385132 C 749.340088 352.385132 754.529236 353.314667 759.167969 355.173767 C 763.806763 357.032898 767.443787 359.622955 770.078918 362.944092 C 772.714233 366.265259 774.717712 370.597107 776.089478 375.939758 L 766.613525 378.53891 C 765.42218 374.495789 763.9422 371.319092 762.17334 369.008759 C 760.40448 366.698364 757.877502 364.848328 754.592529 363.458527 C 751.307373 362.068665 747.661499 361.373779 743.654419 361.373779 C 738.85321 361.373779 734.701904 362.104797 731.200195 363.566772 C 727.698608 365.028809 724.87384 366.951111 722.725952 369.333618 C 720.578003 371.716187 718.908447 374.333374 717.717285 377.185181 C 715.695618 382.094727 714.684875 387.419281 714.684875 393.159058 C 714.684875 400.234497 715.903259 406.154724 718.339905 410.9198 C 720.776611 415.684937 724.323364 419.222595 728.980103 421.532959 C 733.636902 423.843323 738.582397 424.998474 743.816895 424.998474 C 748.365356 424.998474 752.805481 424.123077 757.137512 422.372284 C 761.46936 420.62146 764.754333 418.753326 766.992554 416.767883 L 766.992554 401.985291 Z"/>
            <path id="Shape" fill="#c53e32" fill-rule="evenodd" stroke="none" d="M 1047.029907 433.120789 L 1047.029907 353.7388 L 1076.974121 353.7388 C 1082.244751 353.7388 1086.269653 353.991516 1089.049316 354.496887 C 1092.94812 355.146667 1096.215088 356.383057 1098.85022 358.206085 C 1101.485474 360.029114 1103.606201 362.583099 1105.212646 365.868134 C 1106.819092 369.153137 1107.622314 372.763031 1107.622314 376.697876 C 1107.622314 383.448425 1105.474365 389.161072 1101.178589 393.835907 C 1096.882813 398.510742 1089.121582 400.848175 1077.894653 400.848175 L 1057.53479 400.848175 L 1057.53479 433.120789 Z M 1057.53479 391.480469 L 1078.057129 391.480469 C 1084.843872 391.480469 1089.662964 390.21698 1092.514893 387.690033 C 1095.366699 385.163086 1096.792603 381.607361 1096.792603 377.022736 C 1096.792603 373.701599 1095.953247 370.858856 1094.274658 368.494324 C 1092.595947 366.129822 1090.38501 364.568542 1087.641479 363.810486 C 1085.872559 363.341187 1082.605591 363.106537 1077.840576 363.106537 L 1057.53479 363.106537 Z M 1122.861816 433.120789 L 1122.861816 353.7388 L 1132.608643 353.7388 L 1132.608643 433.120789 Z M 1188.567993 426.027313 C 1184.95813 429.095764 1181.483765 431.261688 1178.144409 432.525146 C 1174.805298 433.788605 1171.222412 434.420349 1167.395996 434.420349 C 1161.078613 434.420349 1156.223267 432.877136 1152.829956 429.790619 C 1149.436646 426.704132 1147.73999 422.760345 1147.73999 417.959167 C 1147.73999 415.143402 1148.380737 412.571381 1149.662231 410.24295 C 1150.943726 407.914551 1152.622314 406.046448 1154.69812 404.63855 C 1156.773804 403.230713 1159.111084 402.165771 1161.710327 401.443817 C 1163.623657 400.938416 1166.511475 400.45108 1170.374146 399.981781 C 1178.243774 399.043213 1184.037598 397.924164 1187.755859 396.624573 C 1187.79187 395.28891 1187.810059 394.440582 1187.810059 394.07959 C 1187.810059 390.108643 1186.889404 387.311005 1185.048462 385.686523 C 1182.557617 383.484497 1178.857422 382.383484 1173.947876 382.383484 C 1169.363281 382.383484 1165.979126 383.186707 1163.795044 384.793091 C 1161.611084 386.399506 1159.995605 389.24231 1158.948853 393.321503 L 1149.418579 392.021912 C 1150.284912 387.942719 1151.710938 384.648712 1153.696411 382.139801 C 1155.681885 379.63092 1158.551636 377.699646 1162.305908 376.345886 C 1166.060303 374.992188 1170.410156 374.315308 1175.355835 374.315308 C 1180.265381 374.315308 1184.25415 374.892883 1187.322632 376.048096 C 1190.390991 377.203247 1192.647217 378.656219 1194.091187 380.407043 C 1195.535156 382.157867 1196.545898 384.368896 1197.123535 387.040253 C 1197.448486 388.700806 1197.610962 391.697021 1197.610962 396.028931 L 1197.610962 409.024597 C 1197.610962 418.085541 1197.818359 423.816223 1198.233643 426.216797 C 1198.648682 428.617432 1199.469971 430.918732 1200.697266 433.120789 L 1190.517456 433.120789 C 1189.506592 431.099243 1188.856934 428.734772 1188.567993 426.027313 Z M 1187.755859 404.259521 C 1184.21814 405.703522 1178.911621 406.930847 1171.83606 407.94165 C 1167.829102 408.519226 1164.995361 409.169006 1163.334839 409.890991 C 1161.674316 410.612976 1160.392822 411.668884 1159.490234 413.058716 C 1158.587769 414.448486 1158.136597 415.99173 1158.136597 417.688416 C 1158.136597 420.287537 1159.120239 422.453491 1161.087646 424.186279 C 1163.055054 425.919006 1165.93396 426.78537 1169.724365 426.78537 C 1173.478638 426.78537 1176.817749 425.964111 1179.741821 424.321594 C 1182.665894 422.679077 1184.813843 420.431946 1186.185425 417.580078 C 1187.232422 415.378052 1187.755859 412.12915 1187.755859 407.833344 Z M 1210.901123 433.120789 L 1210.901123 425.215088 L 1247.505615 383.195679 C 1243.354248 383.412292 1239.690186 383.520599 1236.51355 383.520599 L 1213.067017 383.520599 L 1213.067017 375.614899 L 1260.068115 375.614899 L 1260.068115 382.058563 L 1228.932739 418.55481 L 1222.922119 425.215088 C 1227.290161 424.890167 1231.387329 424.727753 1235.213867 424.727753 L 1261.800903 424.727753 L 1261.800903 433.120789 Z M 1312.345459 426.027313 C 1308.735474 429.095764 1305.260986 431.261688 1301.921753 432.525146 C 1298.582642 433.788605 1294.999878 434.420349 1291.173218 434.420349 C 1284.855957 434.420349 1280.000732 432.877136 1276.6073 429.790619 C 1273.213989 426.704132 1271.517334 422.760345 1271.517334 417.959167 C 1271.517334 415.143402 1272.158081 412.571381 1273.439575 410.24295 C 1274.721069 407.914551 1276.399658 406.046448 1278.475464 404.63855 C 1280.55127 403.230713 1282.888672 402.165771 1285.487793 401.443817 C 1287.400879 400.938416 1290.288818 400.45108 1294.151489 399.981781 C 1302.021118 399.043213 1307.815063 397.924164 1311.533203 396.624573 C 1311.569336 395.28891 1311.587402 394.440582 1311.587402 394.07959 C 1311.587402 390.108643 1310.666748 387.311005 1308.825806 385.686523 C 1306.334961 383.484497 1302.634766 382.383484 1297.725342 382.383484 C 1293.140747 382.383484 1289.75647 383.186707 1287.572388 384.793091 C 1285.388428 386.399506 1283.773071 389.24231 1282.726196 393.321503 L 1273.196045 392.021912 C 1274.062256 387.942719 1275.488281 384.648712 1277.473755 382.139801 C 1279.459229 379.63092 1282.328979 377.699646 1286.083252 376.345886 C 1289.837646 374.992188 1294.187622 374.315308 1299.133179 374.315308 C 1304.042725 374.315308 1308.031616 374.892883 1311.099976 376.048096 C 1314.168457 377.203247 1316.424561 378.656219 1317.86853 380.407043 C 1319.312622 382.157867 1320.323364 384.368896 1320.900879 387.040253 C 1321.22583 388.700806 1321.388306 391.697021 1321.388306 396.028931 L 1321.388306 409.024597 C 1321.388306 418.085541 1321.595947 423.816223 1322.010986 426.216797 C 1322.426147 428.617432 1323.247314 430.918732 1324.474854 433.120789 L 1314.2948 433.120789 C 1313.284058 431.099243 1312.634277 428.734772 1312.345459 426.027313 Z M 1311.533203 404.259521 C 1307.995483 405.703522 1302.688843 406.930847 1295.613403 407.94165 C 1291.606445 408.519226 1288.772705 409.169006 1287.112183 409.890991 C 1285.45166 410.612976 1284.170166 411.668884 1283.267578 413.058716 C 1282.365112 414.448486 1281.91394 415.99173 1281.91394 417.688416 C 1281.91394 420.287537 1282.897583 422.453491 1284.86499 424.186279 C 1286.832397 425.919006 1289.711304 426.78537 1293.501709 426.78537 C 1297.255981 426.78537 1300.595093 425.964111 1303.519165 424.321594 C 1306.443237 422.679077 1308.591187 420.431946 1309.963013 417.580078 C 1311.009888 415.378052 1311.533203 412.12915 1311.533203 407.833344 Z"/>
        </g>
        <g id="water-copy">
            <g id="g2">
                <g id="water-wifi-4-arches-copy-18">
                    <path id="Path" fill="#0376bb" fill-rule="evenodd" stroke="none" d="M 45.255413 425.451416 C 45.255413 425.451416 290.259338 242.391113 627.305237 425.451416"/>
                    <path id="Path-copy-4" fill="#038de2" fill-rule="evenodd" stroke="none" d="M 179.363037 425.451416 C 179.363037 425.451416 303.315521 311.924652 473.833893 425.451416"/>
                    <path id="path1" fill="#0376bb" fill-rule="evenodd" stroke="none" d="M 166.095993 491.190948 C 166.095993 491.190948 314.156616 373.590515 505.147797 491.841309"/>
                    <path id="Path-copy" fill="#038de2" fill-rule="evenodd" stroke="none" d="M 241.780502 491.431854 C 241.780502 491.431854 316.354034 417.392273 412.550323 491.841309"/>
                    <path id="path2" fill="#0376bb" fill-rule="evenodd" stroke="none" d="M 273.000122 528.09491 C 273.000122 528.09491 326.677399 476.666992 381.662567 527.691895"/>
                    <path id="Path-copy-2" fill="#038de2" fill-rule="evenodd" stroke="none" d="M 298.228302 528.09491 C 298.228302 528.09491 327.087341 491.529327 356.649567 527.80835"/>
                </g>
            </g>
        </g>
    </g>
    <g id="g3">
        <path id="path3" fill="none" stroke="#3e3e3e" stroke-width="11" stroke-linecap="round" stroke-linejoin="round" d="M 66 382 C 94.794556 366.713196 102.807816 341.337952 107.823425 327.603516 C 114.649918 308.910278 117.13472 299.652161 120.764114 280.154297 C 120.986847 278.956482 136.597824 282.081726 138.018387 282.311096 C 192.165344 291.056946 214.858093 249.770325 227.019684 194.844788 C 229.78717 182.345886 250.616394 215.193298 254.172638 218.3797 C 289.752075 250.258606 354.566193 223.45697 377.631744 188.364197 C 389.125061 170.876465 389.650238 170.276184 395.968018 187.415771 C 412.339844 231.835022 456.915283 241.494263 494.754517 219.749695 C 495.066223 219.570557 494.493896 233.132141 494.457825 234.553772 C 493.603943 267.902466 523.417297 284.79187 552.205383 286.620483 C 564.091431 287.375488 569.023987 284.457275 569.537598 297.828918 C 570.533691 323.579285 582.158752 357.665894 600.201843 375.706482"/>
        <path id="path4" fill="none" stroke="#3e3e3e" stroke-width="11" stroke-linecap="round" stroke-linejoin="round" d="M 120.764122 282.311096 L 122.763062 285.512726 C 136.082825 306.845795 145.681961 321.152588 150.105255 346.112885 C 153.363098 364.498505 154.24646 375.913788 155.272644 394.463806"/>
        <path id="path5" fill="none" stroke="#3e3e3e" stroke-width="11" stroke-linecap="round" stroke-linejoin="round" d="M 229.681641 196.039795 L 231.907013 199.889465 C 260.942291 250.137451 267.176483 335.027161 271.738892 392.307007"/>
        <path id="path6" fill="none" stroke="#3e3e3e" stroke-width="11" stroke-linecap="round" stroke-linejoin="round" d="M 389.037537 182.042542 L 388.664398 183.655792 C 375.968536 238.210968 361.883514 287.641907 359.071167 344.287201 C 358.253357 360.759827 357.247284 374.732422 356.931824 391.228607"/>
        <path id="path7" fill="none" stroke="#3e3e3e" stroke-width="11" stroke-linecap="round" stroke-linejoin="round" d="M 489.573944 225.156342 L 485.660309 230.437653 C 452.286377 275.454834 440.020874 336.406006 444.281525 392.307007"/>
        <path id="path8" fill="none" stroke="#3e3e3e" stroke-width="11" stroke-linecap="round" stroke-linejoin="round" d="M 562.815308 292.848907 L 560.432678 295.704041 C 535.483582 325.572815 541.805664 366.446899 540.170288 401.857666"/>
        <path id="path9" fill="none" stroke="#3e3e3e" stroke-width="11" stroke-linecap="round" stroke-linejoin="round" d="M 35 400 C 63.74968 385.167542 86.168564 369.272766 114.10318 351.865906 C 165.543015 319.812195 191.225281 308.671692 239.78418 298.157471 C 293.578369 286.509644 375.032593 287.585571 427.988068 298.786255 C 521.200012 318.500793 558.037537 342.981934 633 399.873474"/>
        <path id="Path-copy-5" fill="none" stroke="#b27517" stroke-width="11" stroke-linecap="round" stroke-linejoin="round" d="M 516.639648 164.78299 L 520.709229 165.57254 C 534.151062 168.182465 534.946411 196.602142 524.720459 203.735626 C 497.431732 222.763519 481.408203 169.736542 513.96875 165.473267 C 514.880554 165.353851 515.736877 164.60788 516.639648 164.78299 Z"/>
        <path id="path10" fill="none" stroke="#c94b40" stroke-width="11" stroke-linecap="round" stroke-linejoin="round" d="M 212.850327 134.070892 C 195.314667 134.288666 192.432404 160.366211 200.796829 169.322266 C 217.239594 186.927399 239.755859 174.578705 237.254135 151.738312 C 235.479263 135.533844 212.850327 134.070892 212.850327 134.070892 Z"/>
        <path id="Path-copy-3" fill="none" stroke="#0376bb" stroke-width="11" stroke-linecap="round" stroke-linejoin="round" d="M 401.602844 112.832214 C 384.866241 105.731171 374.235809 131.136841 378.984589 142.629791 C 388.351379 165.299225 415.83017 162.250885 416.267334 137.687103 C 416.572876 120.520233 411.765656 117.144135 401.602844 112.832214 Z"/>
        <path id="path11" fill="none" stroke="#05a89d" stroke-width="11" stroke-linecap="round" stroke-linejoin="round" d="M 92.526237 233.112732 C 76.130112 243.098938 78.031288 260.116425 90.189133 267.260742 C 111.156166 279.585327 130.740479 253.33374 117.935532 237.059723 C 109.276413 226.054688 98.532715 229.454437 92.526237 233.112732 Z"/>
        <path id="path12" fill="none" stroke="#9a1860" stroke-width="11" stroke-linecap="round" stroke-linejoin="round" d="M 580.901123 278.70224 C 599.947083 298.146484 621.468018 265.682922 604.091736 248.245728 C 601.280823 245.424103 602.741577 246.591797 599.335632 244.678619 C 587.666016 238.123993 558.825012 256.164642 580.901123 278.70224 Z"/>
    </g>
</svg>
