<?xml version="1.0" encoding="UTF-8"?>
<!-- Generated by Pixelmator Pro 3.2.3 -->
<svg width="1413" height="551" viewBox="0 0 1413 551" xmlns="http://www.w3.org/2000/svg" xmlns:xlink="http://www.w3.org/1999/xlink">
    <g id="Group">
        <g id="Group-copy-2">
            <path id="Ellipse" fill="#fbc63d" fill-rule="evenodd" stroke="none" d="M 34.318359 415.875 C 27.585855 390.187531 24 363.226807 24 335.427734 C 24 160.669769 165.669785 19 340.427734 19 C 515.18573 19 656.855469 160.669769 656.855469 335.427734 C 656.855469 363.014801 653.322937 389.776276 646.689453 415.287109 C 617.68634 398.640869 469.621613 322.905457 338.525391 323.378906 C 195.665787 316.333832 59.05431 399.888794 34.318359 415.875 Z"/>
            <path id="Ellipse-copy-5" fill="#fbd573" fill-rule="evenodd" stroke="none" d="M 34.054688 414.861328 C 27.492521 389.478699 24 362.861145 24 335.427734 C 24 160.669769 165.669785 19 340.427734 19 C 515.18573 19 656.855469 160.669769 656.855469 335.427734 C 656.855469 362.679504 653.409912 389.126648 646.931641 414.357422 C 636.043518 377.112213 556.041138 153.105743 341.042969 148.029297 C 126.764793 150.707397 45.520882 378.934875 34.054688 414.861328 Z"/>
            <path id="Ellipse-copy-6" fill="#fbe7a6" fill-rule="evenodd" stroke="none" d="M 34.292969 415.773438 C 27.577579 390.116394 24 363.190247 24 335.427734 C 24 160.669769 165.669785 19 340.427734 19 C 515.18573 19 656.855469 160.669769 656.855469 335.427734 C 656.855469 362.904816 653.351929 389.563354 646.769531 414.982422 C 642.996399 380.22287 596.319275 86.607391 343.5 82.900391 C 85.228981 86.955292 39.094997 378.869934 34.292969 415.773438 Z"/>
        </g>
        <g id="Group-copy-5">
            <g id="g1">
                <path id="CHI" fill="#c53e32" fill-rule="evenodd" stroke="none" d="M 1073.682617 310.236267 L 1073.682617 130.499237 L 1097.467773 130.499237 L 1097.467773 310.236267 Z M 889.041504 310.236267 L 889.041504 130.499237 L 912.82666 130.499237 L 912.82666 204.306671 L 1006.250671 204.306671 L 1006.250671 130.499237 L 1030.035889 130.499237 L 1030.035889 310.236267 L 1006.250671 310.236267 L 1006.250671 225.517151 L 912.82666 225.517151 L 912.82666 310.236267 Z M 835.218445 247.217987 L 859.003662 253.225555 C 854.017761 272.760468 845.047302 287.656708 832.092041 297.914612 C 819.136963 308.172485 803.30072 313.301331 784.583191 313.301331 C 765.21167 313.301331 749.457336 309.357605 737.319458 301.470093 C 725.181641 293.582581 715.945496 282.160126 709.611084 267.202393 C 703.276489 252.244659 700.109253 236.183746 700.109253 219.019135 C 700.109253 200.301514 703.68512 183.975006 710.837036 170.038971 C 717.989014 156.102936 728.164917 145.51825 741.365417 138.284607 C 754.565735 131.050964 769.094116 127.434174 784.95105 127.434174 C 802.932922 127.434174 818.053955 132.011292 830.314331 141.165741 C 842.574707 150.320221 851.116028 163.193451 855.938599 179.78595 L 832.52124 185.30307 C 828.352722 172.225281 822.304321 162.703156 814.375793 156.736481 C 806.447388 150.769714 796.475769 147.786407 784.46051 147.786407 C 770.647095 147.786407 759.102051 151.096649 749.825012 157.717285 C 740.547913 164.337921 734.029541 173.226563 730.269653 184.383545 C 726.509949 195.540558 724.629944 207.0448 724.629944 218.896515 C 724.629944 234.181152 726.857178 247.524445 731.31189 258.926605 C 735.766479 270.328796 742.693604 278.849731 752.093201 284.489471 C 761.492859 290.129303 771.668762 292.949127 782.62146 292.949127 C 795.944458 292.949127 807.223999 289.107635 816.460144 281.424408 C 825.696289 273.741211 831.949097 262.339142 835.218445 247.217987 Z"/>
                <path id="23" fill="#fbc63d" fill-rule="evenodd" stroke="none" d="M 1270.584229 262.543518 L 1303.932373 258.49765 C 1304.994995 266.998169 1307.855591 273.496094 1312.514648 277.991547 C 1317.173706 282.487061 1322.813232 284.734741 1329.43396 284.734741 C 1336.544922 284.734741 1342.532104 282.037476 1347.395264 276.642914 C 1352.258667 271.248352 1354.690186 263.973969 1354.690186 254.819519 C 1354.690186 246.155487 1352.360718 239.289734 1347.701904 234.222107 C 1343.042847 229.15448 1337.362305 226.620728 1330.659912 226.620728 C 1326.246216 226.620728 1320.974365 227.478912 1314.844116 229.195435 L 1318.644775 201.119202 C 1327.962646 201.36438 1335.07373 199.341492 1339.977783 195.050354 C 1344.881958 190.759216 1347.334106 185.058197 1347.334106 177.947174 C 1347.334106 171.898651 1345.535767 167.076355 1341.939453 163.47998 C 1338.343018 159.883575 1333.561646 158.085388 1327.594849 158.085388 C 1321.709839 158.085388 1316.683105 160.128784 1312.514648 164.215607 C 1308.346191 168.302338 1305.812378 174.269043 1304.91333 182.115692 L 1273.158936 176.7211 C 1275.365845 165.85022 1278.696533 157.165863 1283.151123 150.667847 C 1287.605835 144.16983 1293.817505 139.061462 1301.786865 135.342468 C 1309.756104 131.623444 1318.685547 129.763977 1328.575806 129.763977 C 1345.494995 129.763977 1359.062988 135.158478 1369.280029 145.947632 C 1377.698853 154.775146 1381.908203 164.746765 1381.908203 175.862915 C 1381.908203 191.637939 1373.285156 204.225128 1356.03894 213.624786 C 1366.337646 215.831665 1374.572388 220.776581 1380.743408 228.459808 C 1386.914551 236.142944 1390 245.419861 1390 256.290771 C 1390 272.065796 1384.237671 285.511169 1372.712891 296.627319 C 1361.18811 307.743408 1346.84375 313.301331 1329.679199 313.301331 C 1313.413696 313.301331 1299.927368 308.62207 1289.219971 299.263306 C 1278.512573 289.904449 1272.300781 277.664673 1270.584229 262.543518 Z M 1248.515747 278.236786 L 1248.515747 310.236267 L 1127.751221 310.236267 C 1129.05896 298.139313 1132.982422 286.676025 1139.521118 275.846008 C 1146.060059 265.015991 1158.974121 250.651093 1178.263916 232.750854 C 1193.793701 218.283569 1203.315918 208.475464 1206.830566 203.32608 C 1211.571167 196.214996 1213.941528 189.185822 1213.941528 182.238312 C 1213.941528 174.555115 1211.877563 168.64975 1207.750122 164.522064 C 1203.622314 160.39444 1197.921387 158.330566 1190.646851 158.330566 C 1183.454102 158.330566 1177.732666 160.496582 1173.482422 164.828583 C 1169.232056 169.160614 1166.780029 176.353302 1166.126099 186.406799 L 1131.797241 182.973846 C 1133.840576 164.011139 1140.256714 150.402252 1151.045898 142.146942 C 1161.835083 133.891602 1175.321289 129.763977 1191.505127 129.763977 C 1209.241699 129.763977 1223.17749 134.545471 1233.312866 144.108551 C 1243.44812 153.671722 1248.515747 165.564148 1248.515747 179.786163 C 1248.515747 187.878052 1247.064819 195.581604 1244.16333 202.896912 C 1241.261597 210.212311 1236.664063 217.874969 1230.370239 225.885101 C 1226.201782 231.197937 1218.682129 238.840179 1207.811279 248.811951 C 1196.94043 258.783722 1190.054199 265.404266 1187.15271 268.673737 C 1184.250977 271.943176 1181.901123 275.130798 1180.103027 278.236786 Z"/>
            </g>
            <path id="GlobalPlaza" fill="#fbc63d" fill-rule="evenodd" stroke="none" d="M 1021.603455 433.120789 L 1021.603455 353.7388 L 1031.35022 353.7388 L 1031.35022 433.120789 Z M 994.342773 426.027313 C 990.73291 429.095764 987.258362 431.261688 983.919189 432.525146 C 980.579956 433.788605 976.997192 434.420349 973.170715 434.420349 C 966.853271 434.420349 961.997986 432.877136 958.604614 429.790619 C 955.211304 426.704132 953.514771 422.760345 953.514771 417.959167 C 953.514771 415.143402 954.155457 412.571381 955.436951 410.24295 C 956.718445 407.914551 958.397156 406.046448 960.472778 404.63855 C 962.548523 403.230713 964.885925 402.165771 967.485046 401.443817 C 969.398254 400.938416 972.286133 400.45108 976.148804 399.981781 C 984.018494 399.043213 989.812317 397.924164 993.530518 396.624573 C 993.56665 395.28891 993.584656 394.440582 993.584656 394.07959 C 993.584656 390.108643 992.664246 387.311005 990.823059 385.686523 C 988.332214 383.484497 984.632202 382.383484 979.722656 382.383484 C 975.138062 382.383484 971.753784 383.186707 969.569702 384.793091 C 967.385742 386.399506 965.770325 389.24231 964.72345 393.321503 L 955.193298 392.021912 C 956.059753 387.942719 957.485535 384.648712 959.471008 382.139801 C 961.456482 379.63092 964.326416 377.699646 968.08075 376.345886 C 971.835083 374.992188 976.184937 374.315308 981.130493 374.315308 C 986.039978 374.315308 990.028931 374.892883 993.09729 376.048096 C 996.165833 377.203247 998.422058 378.656219 999.866028 380.407043 C 1001.309937 382.157867 1002.320679 384.368896 1002.898193 387.040253 C 1003.223145 388.700806 1003.385559 391.697021 1003.385559 396.028931 L 1003.385559 409.024597 C 1003.385559 418.085541 1003.593201 423.816223 1004.00824 426.216797 C 1004.423462 428.617432 1005.244751 430.918732 1006.472107 433.120789 L 996.292114 433.120789 C 995.281372 431.099243 994.631531 428.734772 994.342773 426.027313 Z M 993.530518 404.259521 C 989.992798 405.703522 984.68634 406.930847 977.610901 407.94165 C 973.60376 408.519226 970.77002 409.169006 969.109497 409.890991 C 967.448914 410.612976 966.167419 411.668884 965.264954 413.058716 C 964.362427 414.448486 963.911194 415.99173 963.911194 417.688416 C 963.911194 420.287537 964.894897 422.453491 966.862366 424.186279 C 968.829712 425.919006 971.708618 426.78537 975.499084 426.78537 C 979.253296 426.78537 982.59259 425.964111 985.516479 424.321594 C 988.440552 422.679077 990.58844 420.431946 991.960266 417.580078 C 993.007141 415.378052 993.530518 412.12915 993.530518 407.833344 Z M 900.804199 433.120789 L 891.761414 433.120789 L 891.761414 353.7388 L 901.508118 353.7388 L 901.508118 382.058563 C 905.623413 376.896393 910.875854 374.315308 917.26532 374.315308 C 920.80304 374.315308 924.151306 375.028259 927.309998 376.454163 C 930.468689 377.880127 933.06781 379.883606 935.107422 382.464722 C 937.147034 385.045776 938.744324 388.159332 939.899475 391.805328 C 941.054688 395.451355 941.632385 399.350037 941.632385 403.501434 C 941.632385 413.356567 939.195679 420.973389 934.322327 426.352173 C 929.448792 431.730988 923.60083 434.420349 916.778137 434.420349 C 909.991394 434.420349 904.666809 431.586609 900.804199 425.919006 Z M 900.695862 403.934662 C 900.695862 410.82962 901.63446 415.811218 903.511597 418.879669 C 906.580139 423.897461 910.731384 426.406342 915.96582 426.406342 C 920.225525 426.406342 923.907593 424.556274 927.012207 420.85611 C 930.11676 417.155914 931.669006 411.641846 931.669006 404.31369 C 931.669006 396.805054 930.179871 391.263885 927.20166 387.690033 C 924.22345 384.116211 920.62262 382.329346 916.399048 382.329346 C 912.139343 382.329346 908.457275 384.179382 905.352661 387.879578 C 902.248108 391.579773 900.695862 396.931396 900.695862 403.934662 Z M 823.185303 404.367859 C 823.185303 393.718536 826.145386 385.830933 832.065674 380.704834 C 837.011353 376.445129 843.039734 374.315308 850.151367 374.315308 C 858.057129 374.315308 864.518738 376.905396 869.53656 382.085632 C 874.554382 387.2659 877.063232 394.422485 877.063232 403.555603 C 877.063232 410.955963 875.953186 416.776886 873.733154 421.018555 C 871.513062 425.260223 868.282227 428.55423 864.040527 430.900696 C 859.798828 433.247131 855.169189 434.420349 850.151367 434.420349 C 842.101196 434.420349 835.59436 431.839294 830.630676 426.677094 C 825.667175 421.514893 823.185303 414.078552 823.185303 404.367859 Z M 833.20282 404.367859 C 833.20282 411.732086 834.809265 417.246185 838.022095 420.910248 C 841.234863 424.574341 845.278015 426.406342 850.151367 426.406342 C 854.98877 426.406342 859.013672 424.565308 862.226501 420.883179 C 865.439331 417.20105 867.045715 411.587677 867.045715 404.042908 C 867.045715 396.931396 865.430298 391.54364 862.199524 387.879578 C 858.968567 384.215515 854.952576 382.383484 850.151367 382.383484 C 845.278015 382.383484 841.234863 384.206482 838.022095 387.852478 C 834.809265 391.498535 833.20282 397.003601 833.20282 404.367859 Z M 798.632141 433.120789 L 798.632141 353.7388 L 808.378906 353.7388 L 808.378906 433.120789 Z M 747.654419 401.985291 L 747.654419 392.671722 L 781.280701 392.617554 L 781.280701 422.074463 C 776.11853 426.189758 770.793945 429.285248 765.306885 431.360962 C 759.819824 433.436646 754.188354 434.474487 748.412537 434.474487 C 740.615112 434.474487 733.53064 432.804932 727.15918 429.465759 C 720.787659 426.126556 715.977417 421.29834 712.728455 414.980988 C 709.479675 408.663574 707.855103 401.606262 707.855103 393.808838 C 707.855103 386.083588 709.47052 378.872864 712.701477 372.176453 C 715.932312 365.480042 720.580078 360.507446 726.644775 357.258484 C 732.709351 354.009583 739.694519 352.385132 747.600281 352.385132 C 753.340088 352.385132 758.529236 353.314667 763.167969 355.173767 C 767.806763 357.032898 771.443787 359.622955 774.078918 362.944092 C 776.714233 366.265259 778.717712 370.597107 780.089478 375.939758 L 770.613525 378.53891 C 769.42218 374.495789 767.9422 371.319092 766.17334 369.008759 C 764.40448 366.698364 761.877502 364.848328 758.592529 363.458527 C 755.307373 362.068665 751.661499 361.373779 747.654419 361.373779 C 742.85321 361.373779 738.701904 362.104797 735.200195 363.566772 C 731.698608 365.028809 728.87384 366.951111 726.725952 369.333618 C 724.578003 371.716187 722.908447 374.333374 721.717285 377.185181 C 719.695618 382.094727 718.684875 387.419281 718.684875 393.159058 C 718.684875 400.234497 719.903259 406.154724 722.339905 410.9198 C 724.776611 415.684937 728.323364 419.222595 732.980103 421.532959 C 737.636902 423.843323 742.582397 424.998474 747.816895 424.998474 C 752.365356 424.998474 756.805481 424.123077 761.137512 422.372284 C 765.46936 420.62146 768.754333 418.753326 770.992554 416.767883 L 770.992554 401.985291 Z"/>
            <path id="Shape" fill="#c53e32" fill-rule="evenodd" stroke="none" d="M 1051.029907 433.120789 L 1051.029907 353.7388 L 1080.974121 353.7388 C 1086.244751 353.7388 1090.269653 353.991516 1093.049316 354.496887 C 1096.94812 355.146667 1100.215088 356.383057 1102.85022 358.206085 C 1105.485474 360.029114 1107.606201 362.583099 1109.212646 365.868134 C 1110.819092 369.153137 1111.622314 372.763031 1111.622314 376.697876 C 1111.622314 383.448425 1109.474365 389.161072 1105.178589 393.835907 C 1100.882813 398.510742 1093.121582 400.848175 1081.894653 400.848175 L 1061.53479 400.848175 L 1061.53479 433.120789 Z M 1061.53479 391.480469 L 1082.057129 391.480469 C 1088.843872 391.480469 1093.662964 390.21698 1096.514893 387.690033 C 1099.366699 385.163086 1100.792603 381.607361 1100.792603 377.022736 C 1100.792603 373.701599 1099.953247 370.858856 1098.274658 368.494324 C 1096.595947 366.129822 1094.38501 364.568542 1091.641479 363.810486 C 1089.872559 363.341187 1086.605591 363.106537 1081.840576 363.106537 L 1061.53479 363.106537 Z M 1126.861816 433.120789 L 1126.861816 353.7388 L 1136.608643 353.7388 L 1136.608643 433.120789 Z M 1192.567993 426.027313 C 1188.95813 429.095764 1185.483765 431.261688 1182.144409 432.525146 C 1178.805298 433.788605 1175.222412 434.420349 1171.395996 434.420349 C 1165.078613 434.420349 1160.223267 432.877136 1156.829956 429.790619 C 1153.436646 426.704132 1151.73999 422.760345 1151.73999 417.959167 C 1151.73999 415.143402 1152.380737 412.571381 1153.662231 410.24295 C 1154.943726 407.914551 1156.622314 406.046448 1158.69812 404.63855 C 1160.773804 403.230713 1163.111084 402.165771 1165.710327 401.443817 C 1167.623657 400.938416 1170.511475 400.45108 1174.374146 399.981781 C 1182.243774 399.043213 1188.037598 397.924164 1191.755859 396.624573 C 1191.79187 395.28891 1191.810059 394.440582 1191.810059 394.07959 C 1191.810059 390.108643 1190.889404 387.311005 1189.048462 385.686523 C 1186.557617 383.484497 1182.857422 382.383484 1177.947876 382.383484 C 1173.363281 382.383484 1169.979126 383.186707 1167.795044 384.793091 C 1165.611084 386.399506 1163.995605 389.24231 1162.948853 393.321503 L 1153.418579 392.021912 C 1154.284912 387.942719 1155.710938 384.648712 1157.696411 382.139801 C 1159.681885 379.63092 1162.551636 377.699646 1166.305908 376.345886 C 1170.060303 374.992188 1174.410156 374.315308 1179.355835 374.315308 C 1184.265381 374.315308 1188.25415 374.892883 1191.322632 376.048096 C 1194.390991 377.203247 1196.647217 378.656219 1198.091187 380.407043 C 1199.535156 382.157867 1200.545898 384.368896 1201.123535 387.040253 C 1201.448486 388.700806 1201.610962 391.697021 1201.610962 396.028931 L 1201.610962 409.024597 C 1201.610962 418.085541 1201.818359 423.816223 1202.233643 426.216797 C 1202.648682 428.617432 1203.469971 430.918732 1204.697266 433.120789 L 1194.517456 433.120789 C 1193.506592 431.099243 1192.856934 428.734772 1192.567993 426.027313 Z M 1191.755859 404.259521 C 1188.21814 405.703522 1182.911621 406.930847 1175.83606 407.94165 C 1171.829102 408.519226 1168.995361 409.169006 1167.334839 409.890991 C 1165.674316 410.612976 1164.392822 411.668884 1163.490234 413.058716 C 1162.587769 414.448486 1162.136597 415.99173 1162.136597 417.688416 C 1162.136597 420.287537 1163.120239 422.453491 1165.087646 424.186279 C 1167.055054 425.919006 1169.93396 426.78537 1173.724365 426.78537 C 1177.478638 426.78537 1180.817749 425.964111 1183.741821 424.321594 C 1186.665894 422.679077 1188.813843 420.431946 1190.185425 417.580078 C 1191.232422 415.378052 1191.755859 412.12915 1191.755859 407.833344 Z M 1214.901123 433.120789 L 1214.901123 425.215088 L 1251.505615 383.195679 C 1247.354248 383.412292 1243.690186 383.520599 1240.51355 383.520599 L 1217.067017 383.520599 L 1217.067017 375.614899 L 1264.068115 375.614899 L 1264.068115 382.058563 L 1232.932739 418.55481 L 1226.922119 425.215088 C 1231.290161 424.890167 1235.387329 424.727753 1239.213867 424.727753 L 1265.800903 424.727753 L 1265.800903 433.120789 Z M 1316.345459 426.027313 C 1312.735474 429.095764 1309.260986 431.261688 1305.921753 432.525146 C 1302.582642 433.788605 1298.999878 434.420349 1295.173218 434.420349 C 1288.855957 434.420349 1284.000732 432.877136 1280.6073 429.790619 C 1277.213989 426.704132 1275.517334 422.760345 1275.517334 417.959167 C 1275.517334 415.143402 1276.158081 412.571381 1277.439575 410.24295 C 1278.721069 407.914551 1280.399658 406.046448 1282.475464 404.63855 C 1284.55127 403.230713 1286.888672 402.165771 1289.487793 401.443817 C 1291.400879 400.938416 1294.288818 400.45108 1298.151489 399.981781 C 1306.021118 399.043213 1311.815063 397.924164 1315.533203 396.624573 C 1315.569336 395.28891 1315.587402 394.440582 1315.587402 394.07959 C 1315.587402 390.108643 1314.666748 387.311005 1312.825806 385.686523 C 1310.334961 383.484497 1306.634766 382.383484 1301.725342 382.383484 C 1297.140747 382.383484 1293.75647 383.186707 1291.572388 384.793091 C 1289.388428 386.399506 1287.773071 389.24231 1286.726196 393.321503 L 1277.196045 392.021912 C 1278.062256 387.942719 1279.488281 384.648712 1281.473755 382.139801 C 1283.459229 379.63092 1286.328979 377.699646 1290.083252 376.345886 C 1293.837646 374.992188 1298.187622 374.315308 1303.133179 374.315308 C 1308.042725 374.315308 1312.031616 374.892883 1315.099976 376.048096 C 1318.168457 377.203247 1320.424561 378.656219 1321.86853 380.407043 C 1323.312622 382.157867 1324.323364 384.368896 1324.900879 387.040253 C 1325.22583 388.700806 1325.388306 391.697021 1325.388306 396.028931 L 1325.388306 409.024597 C 1325.388306 418.085541 1325.595947 423.816223 1326.010986 426.216797 C 1326.426147 428.617432 1327.247314 430.918732 1328.474854 433.120789 L 1318.2948 433.120789 C 1317.284058 431.099243 1316.634277 428.734772 1316.345459 426.027313 Z M 1315.533203 404.259521 C 1311.995483 405.703522 1306.688843 406.930847 1299.613403 407.94165 C 1295.606445 408.519226 1292.772705 409.169006 1291.112183 409.890991 C 1289.45166 410.612976 1288.170166 411.668884 1287.267578 413.058716 C 1286.365112 414.448486 1285.91394 415.99173 1285.91394 417.688416 C 1285.91394 420.287537 1286.897583 422.453491 1288.86499 424.186279 C 1290.832397 425.919006 1293.711304 426.78537 1297.501709 426.78537 C 1301.255981 426.78537 1304.595093 425.964111 1307.519165 424.321594 C 1310.443237 422.679077 1312.591187 420.431946 1313.963013 417.580078 C 1315.009888 415.378052 1315.533203 412.12915 1315.533203 407.833344 Z"/>
        </g>
        <g id="water-copy">
            <g id="g2">
                <g id="water-wifi-4-arches-copy-18">
                    <path id="Path" fill="#0376bb" fill-rule="evenodd" stroke="none" d="M 49.255413 425.451416 C 49.255413 425.451416 294.259338 242.391113 631.305237 425.451416"/>
                    <path id="Path-copy-4" fill="#038de2" fill-rule="evenodd" stroke="none" d="M 183.363037 425.451416 C 183.363037 425.451416 307.315521 311.924652 477.833893 425.451416"/>
                    <path id="path1" fill="#0376bb" fill-rule="evenodd" stroke="none" d="M 170.095993 491.190948 C 170.095993 491.190948 318.156616 373.590515 509.147797 491.841309"/>
                    <path id="Path-copy" fill="#038de2" fill-rule="evenodd" stroke="none" d="M 245.780502 491.431854 C 245.780502 491.431854 320.354034 417.392273 416.550323 491.841309"/>
                    <g id="g3">
                        <path id="path2" fill="#0376bb" fill-rule="evenodd" stroke="none" d="M 261.000122 536.721191 C 261.000122 536.721191 330.157532 470.461884 401 536.201965"/>
                        <path id="Path-copy-2" fill="#038de2" fill-rule="evenodd" stroke="none" d="M 293.503906 536.721191 C 293.503906 536.721191 330.685699 489.610413 368.773438 536.352051"/>
                    </g>
                </g>
            </g>
        </g>
    </g>
    <g id="g4">
        <path id="path3" fill="none" stroke="#3e3e3e" stroke-width="11" stroke-linecap="round" stroke-linejoin="round" d="M 70 382 C 98.794556 366.713196 106.807816 341.337952 111.823425 327.603516 C 118.649918 308.910278 121.13472 299.652161 124.764114 280.154297 C 124.986847 278.956482 140.597824 282.081726 142.018387 282.311096 C 196.165344 291.056946 218.858093 249.770325 231.019684 194.844788 C 233.78717 182.345886 254.616394 215.193298 258.172638 218.3797 C 293.752075 250.258606 358.566193 223.45697 381.631744 188.364197 C 393.125061 170.876465 393.650238 170.276184 399.968018 187.415771 C 416.339844 231.835022 460.915283 241.494263 498.754517 219.749695 C 499.066223 219.570557 498.493896 233.132141 498.457825 234.553772 C 497.603943 267.902466 527.417297 284.79187 556.205383 286.620483 C 568.091431 287.375488 573.023987 284.457275 573.537598 297.828918 C 574.533691 323.579285 586.158752 357.665894 604.201843 375.706482"/>
        <path id="path4" fill="none" stroke="#3e3e3e" stroke-width="11" stroke-linecap="round" stroke-linejoin="round" d="M 124.764122 282.311096 L 126.763062 285.512726 C 140.082825 306.845795 149.681961 321.152588 154.105255 346.112885 C 157.363098 364.498505 158.24646 375.913788 159.272644 394.463806"/>
        <path id="path5" fill="none" stroke="#3e3e3e" stroke-width="11" stroke-linecap="round" stroke-linejoin="round" d="M 233.681641 196.039795 L 235.907013 199.889465 C 264.942291 250.137451 271.176483 335.027161 275.738892 392.307007"/>
        <path id="path6" fill="none" stroke="#3e3e3e" stroke-width="11" stroke-linecap="round" stroke-linejoin="round" d="M 393.037537 182.042542 L 392.664398 183.655792 C 379.968536 238.210968 365.883514 287.641907 363.071167 344.287201 C 362.253357 360.759827 361.247284 374.732422 360.931824 391.228607"/>
        <path id="path7" fill="none" stroke="#3e3e3e" stroke-width="11" stroke-linecap="round" stroke-linejoin="round" d="M 493.573944 225.156342 L 489.660309 230.437653 C 456.286377 275.454834 444.020874 336.406006 448.281525 392.307007"/>
        <path id="path8" fill="none" stroke="#3e3e3e" stroke-width="11" stroke-linecap="round" stroke-linejoin="round" d="M 566.815308 292.848907 L 564.432678 295.704041 C 539.483582 325.572815 545.805664 366.446899 544.170288 401.857666"/>
        <path id="path9" fill="none" stroke="#3e3e3e" stroke-width="11" stroke-linecap="round" stroke-linejoin="round" d="M 39 400 C 67.74968 385.167542 90.168564 369.272766 118.10318 351.865906 C 169.543015 319.812195 195.225281 308.671692 243.78418 298.157471 C 297.578369 286.509644 379.032593 287.585571 431.988068 298.786255 C 525.200012 318.500793 562.037537 342.981934 637 399.873474"/>
        <path id="Path-copy-5" fill="none" stroke="#895b14" stroke-width="11" stroke-linecap="round" stroke-linejoin="round" d="M 525.709229 164.57251 C 545.450439 170.429626 539.946411 195.602112 529.720459 202.735657 C 502.431763 221.76355 486.408203 168.736572 518.96875 164.473267 C 519.880554 164.353882 525.709229 164.57251 525.709229 164.57251 Z"/>
        <path id="path10" fill="none" stroke="#c94b40" stroke-width="11" stroke-linecap="round" stroke-linejoin="round" d="M 216.850342 133.070862 C 199.314667 133.288635 196.432404 159.366211 204.796814 168.322266 C 221.239594 185.927429 245.630005 173.294739 241.25412 150.738281 C 236.891174 128.248535 216.850342 133.070862 216.850342 133.070862 Z"/>
        <path id="Path-copy-3" fill="none" stroke="#0376bb" stroke-width="11" stroke-linecap="round" stroke-linejoin="round" d="M 403.602844 112.832214 C 385.776306 109.261292 376.235779 131.136841 380.984619 142.629761 C 390.351379 165.299255 418.220703 160.503113 420 136 C 421.192871 119.572571 413.384155 114.791565 403.602844 112.832214 Z"/>
        <path id="path11" fill="none" stroke="#05a89d" stroke-width="11" stroke-linecap="round" stroke-linejoin="round" d="M 92.526245 234.112732 C 76.130096 244.098938 80.93988 260.691956 93 268 C 112.118408 279.585144 130.740479 254.33374 117.935547 238.059753 C 109.276398 227.054688 98.532715 230.454468 92.526245 234.112732 Z"/>
        <path id="path12" fill="none" stroke="#ab4679" stroke-width="11" stroke-linecap="round" stroke-linejoin="round" d="M 585 278 C 599.90979 293.159851 627.468018 263.682922 610.091736 246.245728 C 607.280823 243.424072 608.741577 244.591797 605.335632 242.67865 C 593.666016 236.124023 566.258179 258.943848 585 278 Z"/>
    </g>
</svg>
